<svg width="64px" height="64px" viewBox="-12.24 -12.24 48.48 48.48" fill="none" xmlns="http://www.w3.org/2000/svg" stroke="#ffffff" transform="matrix(1, 0, 0, 1, 0, 0)"><g id="SVGRepo_bgCarrier" stroke-width="0"><path transform="translate(-12.24, -12.24), scale(1.5150000000000001)" d="M16,27.49664727365598C18.757981284314706,27.275560465594186,21.587917334667054,28.316570023141796,24.089227460447013,27.133866427138216C26.879446594153247,25.814556930462608,29.42873890096748,23.608344210209967,30.41128054318885,20.682508896420117C31.397632654681313,17.745326678767476,30.412231297898867,14.568941337925331,29.27683253129466,11.686095606996572C28.200142722103855,8.952315448644313,26.633728172439476,6.352052889022682,24.149424379686618,4.783279621552333C21.756376262960472,3.2721319413685572,18.828232307521763,3.408650863348622,16,3.3021209849976003C13.046473204409963,3.190871690021405,9.793068279342348,2.4285710817251593,7.391985128039661,4.1520839590868C4.98782055799181,5.8778086985761435,4.5128394839811845,9.165512964099568,3.8224214997560892,12.043264892848375C3.1850596690838615,14.69987187504698,3.0779182847362954,17.34984632817219,3.5814131396346056,20.035043470311884C4.154856549823262,23.09328446570083,4.24311077588434,26.908453774662377,6.910242688836831,28.510977624555647C9.589088592538054,30.120539727585594,12.8847883203102,27.74637058056036,16,27.49664727365598" fill="#00a2ff" strokewidth="0"></path></g><g id="SVGRepo_tracerCarrier" stroke-linecap="round" stroke-linejoin="round" stroke="#CCCCCC" stroke-width="0.336"></g><g id="SVGRepo_iconCarrier"> <path fill-rule="evenodd" clip-rule="evenodd" d="M21 8C21 6.34315 19.6569 5 18 5H10C8.34315 5 7 6.34315 7 8V20C7 21.6569 8.34315 23 10 23H18C19.6569 23 21 21.6569 21 20V8ZM19 8C19 7.44772 18.5523 7 18 7H10C9.44772 7 9 7.44772 9 8V20C9 20.5523 9.44772 21 10 21H18C18.5523 21 19 20.5523 19 20V8Z" fill="#ffffff"></path> <path d="M6 3H16C16.5523 3 17 2.55228 17 2C17 1.44772 16.5523 1 16 1H6C4.34315 1 3 2.34315 3 4V18C3 18.5523 3.44772 19 4 19C4.55228 19 5 18.5523 5 18V4C5 3.44772 5.44772 3 6 3Z" fill="#ffffff"></path> </g></svg>