<svg width="64px" height="64px" viewBox="-6.72 -6.72 37.44 37.44" fill="none" xmlns="http://www.w3.org/2000/svg" stroke="#ffffff"><g id="SVGRepo_bgCarrier" stroke-width="0"><path transform="translate(-6.72, -6.72), scale(1.17)" d="M16,24.312794087454677C17.48234796497959,23.708873363114048,18.84668761894066,25.90757377606339,20.445476731299493,25.98470421603417C22.277952490776936,26.07310840922745,24.501002946647866,26.122574841823877,25.754957105566056,24.783402829803627C27.001053851421506,23.45262221517671,26.52753960093797,21.259075343117566,26.576864496873853,19.436631599420863C26.618116082283347,17.912478485244545,26.29638258737863,16.44640153161781,26.02118910126096,14.946730583059237C25.761772921827347,13.533038299237186,25.183392619907814,12.232332135784016,24.993423153967598,10.8076447211206C24.69775834055292,8.590288702636736,26.489528929711923,5.35737191791507,24.585880697109673,4.182549037175816C22.58827485618943,2.9497408909967255,20.365949047737057,6.487613821479382,18.01860960670122,6.503188465031C16.319024209555433,6.514465247708157,15.14902967905127,4.6824369129423165,13.503752569163556,4.256079176178613C11.383211224860665,3.7065612847320186,8.42344379642957,1.9644556400422366,7.03155903065433,3.6559999949796502C5.400001830187893,5.638815986696702,8.991797615237436,8.98948566451414,7.756526586181089,11.240628405474123C6.561850563006117,13.417791306658456,1.6984287482104907,12.021432398364784,1.1164220528941105,14.435672921852337C0.5818758294796783,16.653041149107562,4.592986987515955,17.382186175493548,5.811084343637306,19.31057938000807C6.684195361519899,20.69281811914528,6.616119891933622,22.427559138744964,7.142361782334618,23.97545327411301C7.888909079248042,26.17135634406172,7.266785584305559,30.321311478544153,9.584442167144523,30.40957881770261C12.565015691160099,30.523093173573542,13.237713302633978,25.43817235390829,16,24.312794087454677" fill="#00a2ff" strokewidth="0"></path></g><g id="SVGRepo_tracerCarrier" stroke-linecap="round" stroke-linejoin="round"></g><g id="SVGRepo_iconCarrier"> <path d="M6 7V18C6 19.1046 6.89543 20 8 20H16C17.1046 20 18 19.1046 18 18V7M6 7H5M6 7H8M18 7H19M18 7H16M10 11V16M14 11V16M8 7V5C8 3.89543 8.89543 3 10 3H14C15.1046 3 16 3.89543 16 5V7M8 7H16" stroke="#ffffff" stroke-width="2" stroke-linecap="round" stroke-linejoin="round"></path> </g></svg>